<?xml version="1.0" standalone="no"?>
<!DOCTYPE svg PUBLIC "-//W3C//DTD SVG 20010904//EN"
 "http://www.w3.org/TR/2001/REC-SVG-20010904/DTD/svg10.dtd">
<svg version="1.0" xmlns="http://www.w3.org/2000/svg"
 width="141.000000pt" height="142.000000pt" viewBox="0 0 141.000000 142.000000"
 preserveAspectRatio="xMidYMid meet">

<g transform="translate(0.000000,142.000000) scale(0.100000,-0.100000)"
fill="#000000" stroke="none">
<path d="M295 1411 c-109 -8 -168 -33 -224 -97 -71 -81 -71 -81 -71 -604 0
-539 -1 -530 85 -616 87 -88 85 -87 615 -87 307 0 468 4 496 12 83 23 170 109
197 195 17 58 17 934 0 992 -26 83 -112 171 -192 195 -42 12 -765 21 -906 10z
m530 -247 c97 -25 140 -57 333 -248 142 -141 182 -186 182 -206 0 -65 -65 -69
-127 -8 l-43 42 0 -50 c0 -112 -45 -218 -131 -309 -118 -125 -294 -174 -464
-129 -97 25 -140 57 -333 248 -187 185 -201 206 -166 240 26 27 61 19 109 -25
l45 -42 0 50 c0 192 151 386 340 437 73 19 182 20 255 0z"/>
<path d="M609 1057 c-104 -30 -190 -104 -237 -206 -22 -46 -27 -71 -27 -141 0
-76 3 -92 32 -151 39 -79 102 -140 181 -177 48 -22 71 -27 142 -27 71 0 94 5
142 27 79 37 142 98 181 177 28 58 32 75 32 151 0 76 -4 93 -32 151 -60 121
-170 196 -300 205 -40 2 -87 -2 -114 -9z"/>
</g>
</svg>
